<?xml version="1.0" encoding="UTF-8"?>
<!-- Official Yundera mark: the brand favicon as published at
     https://www.yundera.com/favicon.ico (served as SVG). Cloud body
     #dcebf9 with the blue-to-pink gradient outline and the stylised Y,
     matching the Yundera Brand & Style Guide in the KB. Vendored
     verbatim; re-pull from the source above if the brand changes. -->
<svg id="b" xmlns="http://www.w3.org/2000/svg" xmlns:xlink="http://www.w3.org/1999/xlink" viewBox="0 0 296.74143 319.89819"><defs><linearGradient id="d" x1="56.62151" y1="48.5188" x2="237.23038" y2="229.12767" gradientUnits="userSpaceOnUse"><stop offset="0" stop-color="#27b4e1"/><stop offset=".0935" stop-color="#3da4d5"/><stop offset=".41983" stop-color="#8870ae"/><stop offset=".69027" stop-color="#bf4a92"/><stop offset=".89107" stop-color="#e13281"/><stop offset="1" stop-color="#ee2a7b"/></linearGradient></defs><g id="c"><path d="M214.84022,200.99367l12.77041.11879c33.20929,0,60.1308-26.92137,60.1308-60.13066s-26.92151-60.13066-60.1308-60.13066c-3.01978,0-5.98571.22869-8.88599.6584.13374-1.73268.22313-3.4777.22313-5.2447,0-37.14926-30.11545-67.26484-67.26484-67.26484-35.54232,0-64.62594,27.57204-67.07752,62.49068-3.38099-.5408-6.84554-.83121-10.37899-.83121-36.02357,0-65.22643,29.20286-65.22643,65.22656,0,33.26029,25.05155,64.70109,57.07317,64.70109l15.36192.14236" style="fill:#dcebf9; stroke:url(#d); stroke-linecap:round; stroke-linejoin:round; stroke-width:18px;"/><path d="M205.17994,151.69327l-52.76905,64.232c-2.2748,2.76895-3.53102,6.23438-3.55897,9.81782l-.4812,45.67328" style="fill:none; stroke:#294056; stroke-linecap:round; stroke-linejoin:round; stroke-width:20px;"/><line x1="131.45561" y1="198.9769" x2="91.56148" y2="150.41666" style="fill:none; stroke:#294056; stroke-linecap:round; stroke-linejoin:round; stroke-width:20px;"/><circle cx="148.37071" cy="293.98309" r="16.91511" style="fill:none; stroke:#294056; stroke-linecap:round; stroke-linejoin:round; stroke-width:18px;"/></g></svg>